<?xml version="1.0" encoding="ISO-8859-1"?>
<svg height="100.0%" width="100.0%" xmlns="http://www.w3.org/2000/svg">
<title>Biceps Femoris</title>
<image class="" fill="rgb(0,0,0)" fill-opacity="1.0" height="1016" href="femalemuscle180.jpg" id="muscle" opacity="1.0" stroke="rgb(0,0,0)" stroke-dasharray="" stroke-dashoffset="0" stroke-linecap="butt" stroke-opacity="1.0" stroke-width="1" width="1063" x="-300" xmlns:xlink="http://www.w3.org/1999/xlink" xlink:href="femalemuscle180.jpg" y="-430"/>
<image class="" fill="rgb(0,0,0)" fill-opacity="1.0" height="1016" href="femaleskin180.jpg" id="skin" opacity="0.5" stroke="rgb(0,0,0)" stroke-dasharray="" stroke-dashoffset="0" stroke-linecap="butt" stroke-opacity="1.0" stroke-width="1" width="1063" x="-300" xmlns:xlink="http://www.w3.org/1999/xlink" xlink:href="femaleskin180.jpg" y="-430"/>
<polygon class="" fill="rgb(255,153,0)" fill-opacity="0.3" id="" opacity="1.0" points="292.0,326.0 291.0,313.0 288.0,297.0 288.0,276.0 288.0,253.0 290.0,240.0 291.0,225.0 290.0,210.0 289.0,196.0 286.0,185.0 282.0,177.0 272.0,176.0 266.0,176.0 261.0,183.0 257.0,193.0 255.0,206.0 254.0,216.0 253.0,229.0 252.0,243.0 250.0,257.0 248.0,268.0 247.0,280.0 249.0,300.0 251.0,312.0 252.0,324.0 255.0,330.0 262.0,316.0 267.0,307.0 269.0,297.0 273.0,282.0 276.0,298.0 281.0,310.0 287.0,319.0 292.0,326.0" stroke="rgb(255,102,0)" stroke-dasharray="5" stroke-dashoffset="0" stroke-linecap="butt" stroke-opacity="1.0" stroke-width="1" x="0" y="0"/>
<polygon class="" fill="rgb(255,153,0)" fill-opacity="0.35" id="" opacity="1.0" points="198.0,178.0 202.0,184.0 206.0,195.0 206.0,205.0 209.0,216.0 210.0,230.0 212.0,243.0 212.0,253.0 212.0,266.0 215.0,285.0 213.0,303.0 212.0,313.0 205.0,335.0 202.0,319.0 198.0,309.0 194.0,296.0 189.0,287.0 187.0,297.0 184.0,306.0 178.0,316.0 170.0,326.0 171.0,306.0 175.0,295.0 175.0,283.0 176.0,265.0 173.0,248.0 173.0,234.0 173.0,220.0 173.0,208.0 175.0,195.0 177.0,184.0 181.0,176.0 189.0,175.0 198.0,178.0" stroke="rgb(255,102,0)" stroke-dasharray="5" stroke-dashoffset="0" stroke-linecap="butt" stroke-opacity="1.0" stroke-width="1" x="0" y="0"/>
</svg>
