<?xml version="1.0" encoding="ISO-8859-1"?>
<svg height="100.0%" width="100.0%" xmlns="http://www.w3.org/2000/svg">
<title>Deltoideus</title>
<image class="" fill="rgb(0,0,0)" fill-opacity="1.0" height="1016" href="femalemuscle270.jpg" id="muscle" opacity="1.0" stroke="rgb(0,0,0)" stroke-dasharray="" stroke-dashoffset="0" stroke-linecap="butt" stroke-opacity="1.0" stroke-width="1" width="1063" x="-300" xmlns:xlink="http://www.w3.org/1999/xlink" xlink:href="femalemuscle270.jpg" y="-190"/>
<image class="" fill="rgb(0,0,0)" fill-opacity="1.0" height="1016" href="femaleskin270.jpg" id="skin" opacity="0.0" stroke="rgb(0,0,0)" stroke-dasharray="" stroke-dashoffset="0" stroke-linecap="butt" stroke-opacity="1.0" stroke-width="1" width="1063" x="-300" xmlns:xlink="http://www.w3.org/1999/xlink" xlink:href="femaleskin270.jpg" y="-190"/>
<polygon class="" fill="rgb(255,153,0)" fill-opacity="0.37" id="" opacity="1.0" points="200.0,213.0 196.0,203.0 192.0,196.0 185.0,192.0 179.0,183.0 176.0,173.0 177.0,163.0 179.0,152.0 182.0,142.0 189.0,136.0 198.0,134.0 208.0,133.0 216.0,133.0 222.0,137.0 228.0,140.0 235.0,147.0 236.0,153.0 232.0,162.0 225.0,174.0 220.0,182.0 212.0,188.0 206.0,196.0 203.0,203.0 199.0,214.0" stroke="rgb(255,102,0)" stroke-dasharray="5" stroke-dashoffset="0" stroke-linecap="butt" stroke-opacity="1.0" stroke-width="1" x="0" y="0"/>
</svg>
