<?xml version="1.0" encoding="ISO-8859-1"?>
<svg height="430" width="465" xmlns="http://www.w3.org/2000/svg">
<title>Flexor Digitorum Superficialis</title>
<image class="" fill="rgb(0,0,0)" height="1016" href="femalemuscle180.jpg" id="muscle" opacity="1.0" stroke="rgb(0,0,0)" stroke-dasharray="" stroke-dashoffset="0" stroke-linecap="butt" stroke-opacity="1.0" stroke-width="1" width="1063" x="-300" xmlns:xlink="http://www.w3.org/1999/xlink" xlink:href="femalemuscle180.jpg" y="-190"/>
<image class="" fill="rgb(0,0,0)" height="1016" href="femaleskin0.jpg" id="skin" opacity="0.0" stroke="rgb(0,0,0)" stroke-dasharray="" stroke-dashoffset="0" stroke-linecap="butt" stroke-opacity="1.0" stroke-width="1" width="1063" x="-300" xmlns:xlink="http://www.w3.org/1999/xlink" xlink:href="femaleskin0.jpg" y="-190"/>
<polygon class="" fill="rgb(255,153,0)" fill-opacity="0.65" id="" opacity="1.0" points="86.0,337.0 91.0,333.0 106.0,315.0 115.0,304.0 120.0,292.0 121.0,283.0 119.0,275.0 116.0,270.0 116.0,262.0 107.0,272.0 99.0,280.0 93.0,287.0 87.0,303.0 76.0,320.0 68.0,335.0 66.0,337.0 68.0,339.0 71.0,341.0 76.0,346.0 79.0,348.0 85.0,341.0 86.0,336.0" stroke="rgb(255,102,0)" stroke-dasharray="5" stroke-dashoffset="0" stroke-linecap="butt" stroke-opacity="1.0" stroke-width="1" x="0" y="0"/>
<polygon class="" fill="rgb(255,153,0)" fill-opacity="0.74" id="" opacity="1.0" points="383.0,348.0 376.0,335.0 368.0,327.0 360.0,318.0 354.0,312.0 346.0,298.0 342.0,288.0 344.0,277.0 346.0,268.0 348.0,263.0 357.0,272.0 368.0,284.0 376.0,300.0 382.0,313.0 389.0,326.0 394.0,334.0 396.0,338.0 389.0,345.0 383.0,348.0" stroke="rgb(255,51,0)" stroke-dasharray="5" stroke-dashoffset="0" stroke-linecap="butt" stroke-opacity="1.0" stroke-width="1" x="0" y="0"/>
</svg>
