<?xml version="1.0" encoding="ISO-8859-1"?>
<svg height="430" width="465" xmlns="http://www.w3.org/2000/svg">
<title>Gastrocnemius</title>
<image class="" fill="rgb(0,0,0)" fill-opacity="1.0" height="1016" href="femalemuscle180.jpg" id="muscle" opacity="1.0" stroke="rgb(0,0,0)" stroke-dasharray="" stroke-dashoffset="0" stroke-linecap="butt" stroke-opacity="1.0" stroke-width="1" width="1063" x="-300" xmlns:xlink="http://www.w3.org/1999/xlink" xlink:href="femalemuscle180.jpg" y="-590"/>
<image class="" fill="rgb(0,0,0)" fill-opacity="1.0" height="1016" href="femaleskin180.jpg" id="skin" opacity="0.0" stroke="rgb(0,0,0)" stroke-dasharray="" stroke-dashoffset="0" stroke-linecap="butt" stroke-opacity="1.0" stroke-width="1" width="1063" x="-300" xmlns:xlink="http://www.w3.org/1999/xlink" xlink:href="femaleskin180.jpg" y="-590"/>
<polygon class="" fill="rgb(255,153,0)" fill-opacity="0.41" id="" opacity="1.0" points="198.0,152.0 203.0,166.0 205.0,175.0 209.0,186.0 211.0,208.0 211.0,220.0 209.0,236.0 207.0,250.0 204.0,260.0 199.0,253.0 194.0,245.0 190.0,233.0 185.0,244.0 179.0,248.0 171.0,251.0 165.0,239.0 164.0,223.0 164.0,202.0 168.0,186.0 170.0,169.0 173.0,161.0 178.0,153.0 186.0,141.0 191.0,151.0 194.0,160.0 198.0,151.0" stroke="rgb(255,102,0)" stroke-dasharray="5" stroke-dashoffset="0" stroke-linecap="butt" stroke-opacity="1.0" stroke-width="1" x="0" y="0"/>
<polygon class="" fill="rgb(255,153,0)" fill-opacity="0.38" id="" opacity="1.0" points="278.0,144.0 283.0,151.0 287.0,161.0 292.0,170.0 294.0,183.0 297.0,191.0 299.0,207.0 298.0,226.0 294.0,246.0 286.0,250.0 280.0,248.0 272.0,232.0 271.0,243.0 267.0,251.0 257.0,257.0 252.0,242.0 252.0,218.0 251.0,208.0 253.0,190.0 254.0,173.0 261.0,156.0 266.0,149.0 269.0,158.0 271.0,148.0 279.0,144.0" stroke="rgb(255,102,0)" stroke-dasharray="5" stroke-dashoffset="0" stroke-linecap="butt" stroke-opacity="1.0" stroke-width="1" x="0" y="0"/>
</svg>
