<?xml version="1.0" encoding="ISO-8859-1"?>
<svg height="430" width="465" xmlns="http://www.w3.org/2000/svg">
<title>Gluteus Maximus</title>
<image class="" fill="rgb(0,0,0)" fill-opacity="1.0" height="1016" href="femalemuscle180.jpg" id="muscle" opacity="1.0" stroke="rgb(0,0,0)" stroke-dasharray="" stroke-dashoffset="0" stroke-linecap="butt" stroke-opacity="1.0" stroke-width="1" width="1063" x="-300" xmlns:xlink="http://www.w3.org/1999/xlink" xlink:href="femalemuscle180.jpg" y="-380"/>
<image class="" fill="rgb(0,0,0)" fill-opacity="1.0" height="1016" href="femaleskin180.jpg" id="skin" opacity="0.0" stroke="rgb(0,0,0)" stroke-dasharray="" stroke-dashoffset="0" stroke-linecap="butt" stroke-opacity="1.0" stroke-width="1" width="1063" x="-300" xmlns:xlink="http://www.w3.org/1999/xlink" xlink:href="femaleskin180.jpg" y="-380"/>
<polygon class="" fill="rgb(255,153,0)" fill-opacity="0.44" id="" opacity="1.0" points="233.0,208.0 233.0,171.0 234.0,166.0 241.0,160.0 245.0,151.0 251.0,146.0 258.0,143.0 265.0,136.0 274.0,144.0 282.0,152.0 288.0,160.0 296.0,167.0 299.0,178.0 303.0,197.0 299.0,215.0 293.0,232.0 290.0,250.0 285.0,233.0 282.0,227.0 271.0,224.0 261.0,224.0 250.0,224.0 242.0,219.0 239.0,213.0 234.0,207.0" stroke="rgb(255,102,0)" stroke-dasharray="5" stroke-dashoffset="0" stroke-linecap="butt" stroke-opacity="1.0" stroke-width="1" x="0" y="0"/>
<polygon class="" fill="rgb(255,153,0)" fill-opacity="0.32" id="" opacity="1.0" points="231.0,207.0 230.0,168.0 221.0,156.0 213.0,147.0 201.0,139.0 196.0,136.0 189.0,143.0 184.0,152.0 178.0,160.0 167.0,170.0 161.0,178.0 158.0,195.0 163.0,206.0 169.0,217.0 171.0,232.0 172.0,245.0 178.0,228.0 184.0,224.0 194.0,224.0 207.0,224.0 215.0,221.0 222.0,215.0 225.0,210.0 231.0,207.0" stroke="rgb(255,102,0)" stroke-dasharray="5" stroke-dashoffset="0" stroke-linecap="butt" stroke-opacity="1.0" stroke-width="1" x="0" y="0"/>
</svg>
