<?xml version="1.0" encoding="ISO-8859-1"?>
<svg height="430" width="465" xmlns="http://www.w3.org/2000/svg">
<title>Latissimus Dorsi</title>
<image class="" fill="rgb(0,0,0)" fill-opacity="1.0" height="1016" href="femalemuscle180.jpg" id="muscle" opacity="1.0" stroke="rgb(0,0,0)" stroke-dasharray="" stroke-dashoffset="0" stroke-linecap="butt" stroke-opacity="1.0" stroke-width="1" width="1063" x="-300" xmlns:xlink="http://www.w3.org/1999/xlink" xlink:href="femalemuscle180.jpg" y="-190"/>
<image class="" fill="rgb(0,0,0)" fill-opacity="1.0" height="1016" href="femaleskin180.jpg" id="skin" opacity="0.0" stroke="rgb(0,0,0)" stroke-dasharray="" stroke-dashoffset="0" stroke-linecap="butt" stroke-opacity="1.0" stroke-width="1" width="1063" x="-300" xmlns:xlink="http://www.w3.org/1999/xlink" xlink:href="femaleskin180.jpg" y="-190"/>
<polygon class="" fill="rgb(255,153,0)" fill-opacity="0.36" id="" opacity="1.0" points="208.0,197.0 199.0,200.0 188.0,198.0 179.0,197.0 174.0,196.0 171.0,206.0 171.0,213.0 174.0,221.0 175.0,232.0 178.0,243.0 178.0,252.0 182.0,257.0 187.0,266.0 189.0,276.0 190.0,285.0 192.0,294.0 192.0,303.0 193.0,315.0 194.0,323.0 200.0,305.0 208.0,287.0 217.0,269.0 227.0,256.0 225.0,239.0 221.0,227.0 217.0,217.0 210.0,208.0 208.0,202.0 208.0,196.0" stroke="rgb(255,102,0)" stroke-dasharray="5" stroke-dashoffset="0" stroke-linecap="butt" stroke-opacity="1.0" stroke-width="1" x="0" y="-2"/>
<polygon class="" fill="rgb(255,153,0)" fill-opacity="0.26" id="" opacity="1.0" points="257.0,201.0 253.0,207.0 249.0,214.0 245.0,222.0 241.0,231.0 236.0,238.0 235.0,247.0 236.0,257.0 244.0,270.0 250.0,282.0 256.0,296.0 262.0,312.0 269.0,324.0 268.0,309.0 268.0,295.0 271.0,283.0 274.0,272.0 278.0,263.0 283.0,254.0 284.0,242.0 286.0,229.0 290.0,217.0 291.0,205.0 285.0,197.0 278.0,200.0 268.0,201.0 261.0,201.0 258.0,202.0" stroke="rgb(255,102,0)" stroke-dasharray="5" stroke-dashoffset="0" stroke-linecap="butt" stroke-opacity="1.0" stroke-width="1" x="0" y="0"/>
</svg>
