<?xml version="1.0" encoding="ISO-8859-1"?>
<svg height="430" width="465" xmlns="http://www.w3.org/2000/svg">
<title>Obliquus Externus Abdominis</title>
<image class="" fill="rgb(0,0,0)" fill-opacity="1.0" height="1012" href="femalemuscle0.jpg" id="muscle" opacity="1.0" stroke="rgb(0,0,0)" stroke-dasharray="" stroke-dashoffset="0" stroke-linecap="butt" stroke-opacity="1.0" stroke-width="1" width="1063" x="-300" xmlns:xlink="http://www.w3.org/1999/xlink" xlink:href="femalemuscle0.jpg" y="-190"/>
<image class="" fill="rgb(0,0,0)" fill-opacity="1.0" height="1016" href="femaleskin0.jpg" id="skin" opacity="0.0" stroke="rgb(0,0,0)" stroke-dasharray="" stroke-dashoffset="0" stroke-linecap="butt" stroke-opacity="1.0" stroke-width="1" width="1063" x="-300" xmlns:xlink="http://www.w3.org/1999/xlink" xlink:href="femaleskin0.jpg" y="-190"/>
<polygon class="" fill="rgb(255,153,0)" fill-opacity="0.47" id="" opacity="1.0" points="283.0,325.0 275.0,331.0 267.0,343.0 261.0,353.0 261.0,322.0 261.0,291.0 261.0,266.0 263.0,248.0 265.0,233.0 274.0,234.0 282.0,229.0 289.0,221.0 287.0,235.0 284.0,246.0 281.0,257.0 280.0,275.0 280.0,285.0 284.0,296.0 286.0,308.0 290.0,320.0 284.0,324.0" stroke="rgb(255,102,0)" stroke-dasharray="" stroke-dashoffset="0" stroke-linecap="butt" stroke-opacity="1.0" stroke-width="1" x="0" y="0"/>
<polygon class="" fill="rgb(255,153,0)" fill-opacity="0.35" id="" opacity="1.0" points="203.0,353.0 194.0,341.0 187.0,333.0 180.0,323.0 173.0,314.0 178.0,300.0 181.0,287.0 183.0,272.0 180.0,260.0 179.0,244.0 176.0,233.0 174.0,223.0 182.0,230.0 190.0,235.0 198.0,232.0 200.0,247.0 200.0,257.0 200.0,272.0 201.0,303.0 201.0,326.0 203.0,353.0" stroke="rgb(255,102,0)" stroke-dasharray="" stroke-dashoffset="0" stroke-linecap="butt" stroke-opacity="1.0" stroke-width="1" x="0" y="0"/>
</svg>
