<?xml version="1.0" encoding="ISO-8859-1"?>
<svg height="430" width="465" xmlns="http://www.w3.org/2000/svg">
<title>Pectoralis Major</title>
<image class="" fill="rgb(0,0,0)" fill-opacity="1.0" height="1012" href="femalemuscle0.jpg" id="muscle" opacity="1.0" stroke="rgb(0,0,0)" stroke-dasharray="" stroke-dashoffset="0" stroke-linecap="butt" stroke-opacity="1.0" stroke-width="1" width="1063" x="-300" xmlns:xlink="http://www.w3.org/1999/xlink" xlink:href="femalemuscle0.jpg" y="-190"/>
<image class="" fill="rgb(0,0,0)" fill-opacity="1.0" height="1016" href="femaleskin0.jpg" id="skin" opacity="0.1" stroke="rgb(0,0,0)" stroke-dasharray="" stroke-dashoffset="0" stroke-linecap="butt" stroke-opacity="1.0" stroke-width="1" width="1063" x="-300" xmlns:xlink="http://www.w3.org/1999/xlink" xlink:href="femaleskin0.jpg" y="-190"/>
<polygon class="" fill="rgb(255,153,0)" fill-opacity="0.35" id="" opacity="1.0" points="264.0,233.0 252.0,225.0 242.0,217.0 233.0,205.0 230.0,196.0 231.0,159.0 239.0,152.0 246.0,146.0 263.0,147.0 278.0,153.0 293.0,154.0 291.0,163.0 287.0,179.0 290.0,195.0 292.0,208.0 288.0,221.0 279.0,231.0 271.0,235.0 263.0,232.0" stroke="rgb(255,102,0)" stroke-dasharray="5" stroke-dashoffset="0" stroke-linecap="butt" stroke-opacity="1.0" stroke-width="1" x="0" y="0"/>
<polygon class="" fill="rgb(255,153,0)" fill-opacity="0.44" id="" opacity="1.0" points="188.0,235.0 177.0,228.0 174.0,223.0 171.0,214.0 171.0,207.0 171.0,198.0 175.0,188.0 175.0,175.0 171.0,165.0 170.0,154.0 174.0,153.0 186.0,151.0 196.0,148.0 203.0,148.0 214.0,148.0 222.0,151.0 226.0,158.0 230.0,168.0 230.0,199.0 226.0,209.0 220.0,217.0 211.0,225.0 203.0,232.0 194.0,235.0 187.0,235.0" stroke="rgb(255,102,0)" stroke-dasharray="5" stroke-dashoffset="0" stroke-linecap="butt" stroke-opacity="0.79" stroke-width="1" x="0" y="0"/>
</svg>
