<?xml version="1.0" encoding="ISO-8859-1"?>
<svg height="100.0%" width="100.0%" xmlns="http://www.w3.org/2000/svg">
<title>Pectoralis Major</title>
<image class="" fill="rgb(0,0,0)" height="1023" href="malemuscle0.png" id="muscle" opacity="1.0" stroke="rgb(0,0,0)" stroke-dasharray="" stroke-dashoffset="0" stroke-linecap="butt" stroke-opacity="1.0" stroke-width="1" width="1175" x="-300" xmlns:xlink="http://www.w3.org/1999/xlink" xlink:href="malemuscle0.png" y="-190"/>
<image class="" fill="rgb(0,0,0)" fill-opacity="1.0" height="1023" href="maleskin0.png" id="skin" opacity="1.0" stroke="rgb(0,0,0)" stroke-dasharray="" stroke-dashoffset="0" stroke-linecap="butt" stroke-opacity="1.0" stroke-width="1" width="1175" x="-300" xmlns:xlink="http://www.w3.org/1999/xlink" xlink:href="maleskin0.png" y="-190"/>
<polygon class="" fill="rgb(0,0,0)" fill-opacity="0.61" id="" opacity="1.0" points="287.0,236.0 284.0,249.0 276.0,255.0 267.0,258.0 257.0,260.0 247.0,258.0 240.0,254.0 234.0,247.0 230.0,236.0 227.0,228.0 224.0,221.0 218.0,211.0 216.0,205.0 228.0,201.0 236.0,196.0 246.0,190.0 250.0,186.0 263.0,188.0 271.0,188.0 275.0,189.0 277.0,197.0 280.0,203.0 281.0,209.0 284.0,214.0 285.0,223.0 286.0,230.0 287.0,237.0" stroke="rgb(0,0,0)" stroke-dasharray="" stroke-dashoffset="0" stroke-linecap="butt" stroke-opacity="1.0" stroke-width="1" x="0" y="0"/>
</svg>
