<?xml version="1.0" encoding="ISO-8859-1"?>
<svg height="430" width="465" xmlns="http://www.w3.org/2000/svg">
<title>Quadriceps Femoris</title>
<image class="" fill="rgb(0,0,0)" fill-opacity="1.0" height="1012" href="femalemuscle0.jpg" id="muscle" opacity="1.0" stroke="rgb(0,0,0)" stroke-dasharray="" stroke-dashoffset="0" stroke-linecap="butt" stroke-opacity="1.0" stroke-width="1" width="1063" x="-300" xmlns:xlink="http://www.w3.org/1999/xlink" xlink:href="femalemuscle0.jpg" y="-430"/>
<image class="" fill="rgb(0,0,0)" fill-opacity="1.0" height="1016" href="femaleskin0.jpg" id="skin" opacity="0.0" stroke="rgb(0,0,0)" stroke-dasharray="" stroke-dashoffset="0" stroke-linecap="butt" stroke-opacity="1.0" stroke-width="1" width="1063" x="-300" xmlns:xlink="http://www.w3.org/1999/xlink" xlink:href="femaleskin0.jpg" y="-430"/>
<polygon class="" fill="rgb(255,153,0)" fill-opacity="0.34" id="" opacity="1.0" points="287.0,310.0 291.0,293.0 295.0,276.0 299.0,256.0 303.0,238.0 304.0,219.0 307.0,197.0 303.0,175.0 299.0,156.0 292.0,139.0 284.0,112.0 281.0,133.0 275.0,148.0 270.0,166.0 265.0,177.0 258.0,193.0 258.0,205.0 258.0,225.0 257.0,244.0 257.0,256.0 261.0,272.0 262.0,287.0 288.0,310.0" stroke="rgb(255,102,0)" stroke-dasharray="5" stroke-dashoffset="0" stroke-linecap="butt" stroke-opacity="1.0" stroke-width="1" x="0" y="0"/>
<polygon class="" fill="rgb(255,153,0)" fill-opacity="0.32" id="" opacity="1.0" points="178.0,117.0 172.0,131.0 167.0,143.0 162.0,153.0 160.0,168.0 158.0,187.0 157.0,197.0 160.0,220.0 161.0,242.0 163.0,259.0 167.0,278.0 170.0,291.0 174.0,310.0 201.0,288.0 203.0,277.0 205.0,264.0 205.0,254.0 205.0,241.0 205.0,227.0 205.0,210.0 204.0,194.0 198.0,181.0 193.0,166.0 188.0,156.0 183.0,144.0 181.0,130.0 178.0,117.0" stroke="rgb(255,102,0)" stroke-dasharray="5" stroke-dashoffset="0" stroke-linecap="butt" stroke-opacity="1.0" stroke-width="1" x="0" y="0"/>
</svg>
