<?xml version="1.0" encoding="ISO-8859-1"?>
<svg height="430" width="465" xmlns="http://www.w3.org/2000/svg">
<title>Serratus Anterior</title>
<image class="" fill="rgb(0,0,0)" fill-opacity="1.0" height="1016" href="femalemuscle270.jpg" id="muscle" opacity="1.0" stroke="rgb(0,0,0)" stroke-dasharray="" stroke-dashoffset="0" stroke-linecap="butt" stroke-opacity="1.0" stroke-width="1" width="1063" x="-300" xmlns:xlink="http://www.w3.org/1999/xlink" xlink:href="femalemuscle270.jpg" y="-190"/>
<image class="" fill="rgb(0,0,0)" fill-opacity="1.0" height="1016" href="femaleskin270.jpg" id="skin" opacity="0.0" stroke="rgb(0,0,0)" stroke-dasharray="" stroke-dashoffset="0" stroke-linecap="butt" stroke-opacity="1.0" stroke-width="1" width="1063" x="-300" xmlns:xlink="http://www.w3.org/1999/xlink" xlink:href="femaleskin270.jpg" y="-190"/>
<polygon class="" fill="rgb(255,153,0)" fill-opacity="0.37" id="" opacity="1.0" points="227.0,258.0 237.0,259.0 245.0,258.0 249.0,256.0 242.0,250.0 247.0,248.0 257.0,244.0 248.0,238.0 258.0,238.0 265.0,235.0 255.0,228.0 251.0,220.0 247.0,209.0 243.0,201.0 239.0,194.0 235.0,186.0 228.0,179.0 223.0,179.0 222.0,186.0 224.0,194.0 227.0,203.0 229.0,215.0 230.0,229.0 229.0,242.0 225.0,252.0 228.0,259.0" stroke="rgb(255,102,0)" stroke-dasharray="5" stroke-dashoffset="0" stroke-linecap="butt" stroke-opacity="1.0" stroke-width="1" x="0" y="0"/>
</svg>
