<?xml version="1.0" encoding="ISO-8859-1"?>
<svg height="430" width="465" xmlns="http://www.w3.org/2000/svg">
<title>Trapezius</title>
<image class="" fill="rgb(0,0,0)" fill-opacity="1.0" height="1016" href="femalemuscle180.jpg" id="muscle" opacity="1.0" stroke="rgb(0,0,0)" stroke-dasharray="" stroke-dashoffset="0" stroke-linecap="butt" stroke-opacity="1.0" stroke-width="1" width="1063" x="-300" xmlns:xlink="http://www.w3.org/1999/xlink" xlink:href="femalemuscle180.jpg" y="-190"/>
<image class="" fill="rgb(0,0,0)" fill-opacity="0.54" height="1016" href="femaleskin180.jpg" id="skin" opacity="0.0" stroke="rgb(0,0,0)" stroke-dasharray="" stroke-dashoffset="0" stroke-linecap="butt" stroke-opacity="1.0" stroke-width="1" width="1063" x="-300" xmlns:xlink="http://www.w3.org/1999/xlink" xlink:href="femaleskin180.jpg" y="-190"/>
<polygon class="" fill="rgb(255,153,0)" fill-opacity="0.34" id="" opacity="1.0" points="231.0,262.0 224.0,236.0 218.0,222.0 210.0,208.0 205.0,196.0 204.0,183.0 201.0,169.0 197.0,157.0 196.0,149.0 171.0,131.0 182.0,125.0 193.0,122.0 203.0,116.0 209.0,107.0 215.0,100.0 218.0,92.0 226.0,84.0 231.0,80.0 230.0,109.0 231.0,121.0 230.0,145.0 231.0,262.0" stroke="rgb(255,102,0)" stroke-dasharray="5" stroke-dashoffset="0" stroke-linecap="butt" stroke-opacity="1.0" stroke-width="1" x="0" y="0"/>
<polygon class="" fill="rgb(255,153,0)" fill-opacity="0.27" id="" opacity="1.0" points="231.0,259.0 231.0,79.0 242.0,86.0 244.0,101.0 250.0,107.0 254.0,113.0 268.0,121.0 279.0,127.0 287.0,130.0 299.0,135.0 280.0,142.0 267.0,149.0 265.0,160.0 260.0,175.0 258.0,189.0 255.0,201.0 252.0,210.0 247.0,220.0 240.0,230.0 236.0,238.0 233.0,251.0 230.0,261.0" stroke="rgb(255,102,0)" stroke-dasharray="5" stroke-dashoffset="0" stroke-linecap="butt" stroke-opacity="1.0" stroke-width="1" x="0" y="0"/>
</svg>
